<?xml version="1.0" encoding="utf-8"?>
<!-- Generator: Adobe Illustrator 26.0.0, SVG Export Plug-In . SVG Version: 6.00 Build 0)  -->
<svg version="1.1" id="Layer_1" xmlns="http://www.w3.org/2000/svg" xmlns:xlink="http://www.w3.org/1999/xlink" x="0px" y="0px"
	 viewBox="0 0 924 924" style="enable-background:new 0 0 924 924;" xml:space="preserve">
<style type="text/css">
	.st0{fill:#FFFFFF;}
</style>
<path class="st0" d="M51,0h822c28.2,0,51,22.8,51,51v822c0,28.2-22.8,51-51,51H51c-28.2,0-51-22.8-51-51V51C0,22.8,22.8,0,51,0z"/>
<g>
	<g transform="translate(280,56) scale(4.8066666666667)">
		<circle cx="3" cy="3" r="3"/>
	</g>
	<g transform="translate(420,56) scale(4.8066666666667)">
		<circle cx="3" cy="3" r="3"/>
	</g>
	<g transform="translate(448,56) scale(4.8066666666667)">
		<circle cx="3" cy="3" r="3"/>
	</g>
	<g transform="translate(476,56) scale(4.8066666666667)">
		<circle cx="3" cy="3" r="3"/>
	</g>
	<g transform="translate(504,56) scale(4.8066666666667)">
		<circle cx="3" cy="3" r="3"/>
	</g>
	<g transform="translate(532,56) scale(4.8066666666667)">
		<circle cx="3" cy="3" r="3"/>
	</g>
	<g transform="translate(560,56) scale(4.8066666666667)">
		<circle cx="3" cy="3" r="3"/>
	</g>
	<g transform="translate(616,56) scale(4.8066666666667)">
		<circle cx="3" cy="3" r="3"/>
	</g>
	<g transform="translate(308,84) scale(4.8066666666667)">
		<circle cx="3" cy="3" r="3"/>
	</g>
	<g transform="translate(336,84) scale(4.8066666666667)">
		<circle cx="3" cy="3" r="3"/>
	</g>
	<g transform="translate(364,84) scale(4.8066666666667)">
		<circle cx="3" cy="3" r="3"/>
	</g>
	<g transform="translate(420,84) scale(4.8066666666667)">
		<circle cx="3" cy="3" r="3"/>
	</g>
	<g transform="translate(448,84) scale(4.8066666666667)">
		<circle cx="3" cy="3" r="3"/>
	</g>
	<g transform="translate(476,84) scale(4.8066666666667)">
		<circle cx="3" cy="3" r="3"/>
	</g>
	<g transform="translate(588,84) scale(4.8066666666667)">
		<circle cx="3" cy="3" r="3"/>
	</g>
	<g transform="translate(364,112) scale(4.8066666666667)">
		<circle cx="3" cy="3" r="3"/>
	</g>
	<g transform="translate(420,112) scale(4.8066666666667)">
		<circle cx="3" cy="3" r="3"/>
	</g>
	<g transform="translate(448,112) scale(4.8066666666667)">
		<circle cx="3" cy="3" r="3"/>
	</g>
	<g transform="translate(560,112) scale(4.8066666666667)">
		<circle cx="3" cy="3" r="3"/>
	</g>
	<g transform="translate(588,112) scale(4.8066666666667)">
		<circle cx="3" cy="3" r="3"/>
	</g>
	<g transform="translate(616,112) scale(4.8066666666667)">
		<circle cx="3" cy="3" r="3"/>
	</g>
	<g transform="translate(336,140) scale(4.8066666666667)">
		<circle cx="3" cy="3" r="3"/>
	</g>
	<g transform="translate(504,140) scale(4.8066666666667)">
		<circle cx="3" cy="3" r="3"/>
	</g>
	<g transform="translate(532,140) scale(4.8066666666667)">
		<circle cx="3" cy="3" r="3"/>
	</g>
	<g transform="translate(588,140) scale(4.8066666666667)">
		<circle cx="3" cy="3" r="3"/>
	</g>
	<g transform="translate(280,168) scale(4.8066666666667)">
		<circle cx="3" cy="3" r="3"/>
	</g>
	<g transform="translate(364,168) scale(4.8066666666667)">
		<circle cx="3" cy="3" r="3"/>
	</g>
	<g transform="translate(392,168) scale(4.8066666666667)">
		<circle cx="3" cy="3" r="3"/>
	</g>
	<g transform="translate(448,168) scale(4.8066666666667)">
		<circle cx="3" cy="3" r="3"/>
	</g>
	<g transform="translate(504,168) scale(4.8066666666667)">
		<circle cx="3" cy="3" r="3"/>
	</g>
	<g transform="translate(588,168) scale(4.8066666666667)">
		<circle cx="3" cy="3" r="3"/>
	</g>
	<g transform="translate(616,168) scale(4.8066666666667)">
		<circle cx="3" cy="3" r="3"/>
	</g>
	<g transform="translate(280,196) scale(4.8066666666667)">
		<circle cx="3" cy="3" r="3"/>
	</g>
	<g transform="translate(308,196) scale(4.8066666666667)">
		<circle cx="3" cy="3" r="3"/>
	</g>
	<g transform="translate(364,196) scale(4.8066666666667)">
		<circle cx="3" cy="3" r="3"/>
	</g>
	<g transform="translate(392,196) scale(4.8066666666667)">
		<circle cx="3" cy="3" r="3"/>
	</g>
	<g transform="translate(448,196) scale(4.8066666666667)">
		<circle cx="3" cy="3" r="3"/>
	</g>
	<g transform="translate(504,196) scale(4.8066666666667)">
		<circle cx="3" cy="3" r="3"/>
	</g>
	<g transform="translate(560,196) scale(4.8066666666667)">
		<circle cx="3" cy="3" r="3"/>
	</g>
	<g transform="translate(616,196) scale(4.8066666666667)">
		<circle cx="3" cy="3" r="3"/>
	</g>
	<g transform="translate(280,224) scale(4.8066666666667)">
		<circle cx="3" cy="3" r="3"/>
	</g>
	<g transform="translate(336,224) scale(4.8066666666667)">
		<circle cx="3" cy="3" r="3"/>
	</g>
	<g transform="translate(392,224) scale(4.8066666666667)">
		<circle cx="3" cy="3" r="3"/>
	</g>
	<g transform="translate(448,224) scale(4.8066666666667)">
		<circle cx="3" cy="3" r="3"/>
	</g>
	<g transform="translate(504,224) scale(4.8066666666667)">
		<circle cx="3" cy="3" r="3"/>
	</g>
	<g transform="translate(560,224) scale(4.8066666666667)">
		<circle cx="3" cy="3" r="3"/>
	</g>
	<g transform="translate(616,224) scale(4.8066666666667)">
		<circle cx="3" cy="3" r="3"/>
	</g>
	<g transform="translate(336,252) scale(4.8066666666667)">
		<circle cx="3" cy="3" r="3"/>
	</g>
	<g transform="translate(448,252) scale(4.8066666666667)">
		<circle cx="3" cy="3" r="3"/>
	</g>
	<g transform="translate(476,252) scale(4.8066666666667)">
		<circle cx="3" cy="3" r="3"/>
	</g>
	<g transform="translate(84,280) scale(4.8066666666667)">
		<circle cx="3" cy="3" r="3"/>
	</g>
	<g transform="translate(112,280) scale(4.8066666666667)">
		<circle cx="3" cy="3" r="3"/>
	</g>
	<g transform="translate(140,280) scale(4.8066666666667)">
		<circle cx="3" cy="3" r="3"/>
	</g>
	<g transform="translate(168,280) scale(4.8066666666667)">
		<circle cx="3" cy="3" r="3"/>
	</g>
	<g transform="translate(196,280) scale(4.8066666666667)">
		<circle cx="3" cy="3" r="3"/>
	</g>
	<g transform="translate(224,280) scale(4.8066666666667)">
		<circle cx="3" cy="3" r="3"/>
	</g>
	<g transform="translate(252,280) scale(4.8066666666667)">
		<circle cx="3" cy="3" r="3"/>
	</g>
	<g transform="translate(308,280) scale(4.8066666666667)">
		<circle cx="3" cy="3" r="3"/>
	</g>
	<g transform="translate(336,280) scale(4.8066666666667)">
		<circle cx="3" cy="3" r="3"/>
	</g>
	<g transform="translate(364,280) scale(4.8066666666667)">
		<circle cx="3" cy="3" r="3"/>
	</g>
	<g transform="translate(420,280) scale(4.8066666666667)">
		<circle cx="3" cy="3" r="3"/>
	</g>
	<g transform="translate(448,280) scale(4.8066666666667)">
		<circle cx="3" cy="3" r="3"/>
	</g>
	<g transform="translate(476,280) scale(4.8066666666667)">
		<circle cx="3" cy="3" r="3"/>
	</g>
	<g transform="translate(560,280) scale(4.8066666666667)">
		<circle cx="3" cy="3" r="3"/>
	</g>
	<g transform="translate(588,280) scale(4.8066666666667)">
		<circle cx="3" cy="3" r="3"/>
	</g>
	<g transform="translate(700,280) scale(4.8066666666667)">
		<circle cx="3" cy="3" r="3"/>
	</g>
	<g transform="translate(728,280) scale(4.8066666666667)">
		<circle cx="3" cy="3" r="3"/>
	</g>
	<g transform="translate(840,280) scale(4.8066666666667)">
		<circle cx="3" cy="3" r="3"/>
	</g>
	<g transform="translate(56,308) scale(4.8066666666667)">
		<circle cx="3" cy="3" r="3"/>
	</g>
	<g transform="translate(112,308) scale(4.8066666666667)">
		<circle cx="3" cy="3" r="3"/>
	</g>
	<g transform="translate(140,308) scale(4.8066666666667)">
		<circle cx="3" cy="3" r="3"/>
	</g>
	<g transform="translate(168,308) scale(4.8066666666667)">
		<circle cx="3" cy="3" r="3"/>
	</g>
	<g transform="translate(280,308) scale(4.8066666666667)">
		<circle cx="3" cy="3" r="3"/>
	</g>
	<g transform="translate(364,308) scale(4.8066666666667)">
		<circle cx="3" cy="3" r="3"/>
	</g>
	<g transform="translate(392,308) scale(4.8066666666667)">
		<circle cx="3" cy="3" r="3"/>
	</g>
	<g transform="translate(448,308) scale(4.8066666666667)">
		<circle cx="3" cy="3" r="3"/>
	</g>
	<g transform="translate(476,308) scale(4.8066666666667)">
		<circle cx="3" cy="3" r="3"/>
	</g>
	<g transform="translate(644,308) scale(4.8066666666667)">
		<circle cx="3" cy="3" r="3"/>
	</g>
	<g transform="translate(672,308) scale(4.8066666666667)">
		<circle cx="3" cy="3" r="3"/>
	</g>
	<g transform="translate(700,308) scale(4.8066666666667)">
		<circle cx="3" cy="3" r="3"/>
	</g>
	<g transform="translate(728,308) scale(4.8066666666667)">
		<circle cx="3" cy="3" r="3"/>
	</g>
	<g transform="translate(840,308) scale(4.8066666666667)">
		<circle cx="3" cy="3" r="3"/>
	</g>
	<g transform="translate(84,336) scale(4.8066666666667)">
		<circle cx="3" cy="3" r="3"/>
	</g>
	<g transform="translate(112,336) scale(4.8066666666667)">
		<circle cx="3" cy="3" r="3"/>
	</g>
	<g transform="translate(168,336) scale(4.8066666666667)">
		<circle cx="3" cy="3" r="3"/>
	</g>
	<g transform="translate(224,336) scale(4.8066666666667)">
		<circle cx="3" cy="3" r="3"/>
	</g>
	<g transform="translate(336,336) scale(4.8066666666667)">
		<circle cx="3" cy="3" r="3"/>
	</g>
	<g transform="translate(392,336) scale(4.8066666666667)">
		<circle cx="3" cy="3" r="3"/>
	</g>
	<g transform="translate(448,336) scale(4.8066666666667)">
		<circle cx="3" cy="3" r="3"/>
	</g>
	<g transform="translate(476,336) scale(4.8066666666667)">
		<circle cx="3" cy="3" r="3"/>
	</g>
	<g transform="translate(532,336) scale(4.8066666666667)">
		<circle cx="3" cy="3" r="3"/>
	</g>
	<g transform="translate(616,336) scale(4.8066666666667)">
		<circle cx="3" cy="3" r="3"/>
	</g>
	<g transform="translate(644,336) scale(4.8066666666667)">
		<circle cx="3" cy="3" r="3"/>
	</g>
	<g transform="translate(672,336) scale(4.8066666666667)">
		<circle cx="3" cy="3" r="3"/>
	</g>
	<g transform="translate(756,336) scale(4.8066666666667)">
		<circle cx="3" cy="3" r="3"/>
	</g>
	<g transform="translate(784,336) scale(4.8066666666667)">
		<circle cx="3" cy="3" r="3"/>
	</g>
	<g transform="translate(56,364) scale(4.8066666666667)">
		<circle cx="3" cy="3" r="3"/>
	</g>
	<g transform="translate(252,364) scale(4.8066666666667)">
		<circle cx="3" cy="3" r="3"/>
	</g>
	<g transform="translate(308,364) scale(4.8066666666667)">
		<circle cx="3" cy="3" r="3"/>
	</g>
	<g transform="translate(336,364) scale(4.8066666666667)">
		<circle cx="3" cy="3" r="3"/>
	</g>
	<g transform="translate(364,364) scale(4.8066666666667)">
		<circle cx="3" cy="3" r="3"/>
	</g>
	<g transform="translate(392,364) scale(4.8066666666667)">
		<circle cx="3" cy="3" r="3"/>
	</g>
	<g transform="translate(504,364) scale(4.8066666666667)">
		<circle cx="3" cy="3" r="3"/>
	</g>
	<g transform="translate(560,364) scale(4.8066666666667)">
		<circle cx="3" cy="3" r="3"/>
	</g>
	<g transform="translate(588,364) scale(4.8066666666667)">
		<circle cx="3" cy="3" r="3"/>
	</g>
	<g transform="translate(616,364) scale(4.8066666666667)">
		<circle cx="3" cy="3" r="3"/>
	</g>
	<g transform="translate(644,364) scale(4.8066666666667)">
		<circle cx="3" cy="3" r="3"/>
	</g>
	<g transform="translate(672,364) scale(4.8066666666667)">
		<circle cx="3" cy="3" r="3"/>
	</g>
	<g transform="translate(700,364) scale(4.8066666666667)">
		<circle cx="3" cy="3" r="3"/>
	</g>
	<g transform="translate(812,364) scale(4.8066666666667)">
		<circle cx="3" cy="3" r="3"/>
	</g>
	<g transform="translate(56,392) scale(4.8066666666667)">
		<circle cx="3" cy="3" r="3"/>
	</g>
	<g transform="translate(84,392) scale(4.8066666666667)">
		<circle cx="3" cy="3" r="3"/>
	</g>
	<g transform="translate(112,392) scale(4.8066666666667)">
		<circle cx="3" cy="3" r="3"/>
	</g>
	<g transform="translate(140,392) scale(4.8066666666667)">
		<circle cx="3" cy="3" r="3"/>
	</g>
	<g transform="translate(168,392) scale(4.8066666666667)">
		<circle cx="3" cy="3" r="3"/>
	</g>
	<g transform="translate(224,392) scale(4.8066666666667)">
		<circle cx="3" cy="3" r="3"/>
	</g>
	<g transform="translate(252,392) scale(4.8066666666667)">
		<circle cx="3" cy="3" r="3"/>
	</g>
	<g transform="translate(280,392) scale(4.8066666666667)">
		<circle cx="3" cy="3" r="3"/>
	</g>
	<g transform="translate(336,392) scale(4.8066666666667)">
		<circle cx="3" cy="3" r="3"/>
	</g>
	<g transform="translate(364,392) scale(4.8066666666667)">
		<circle cx="3" cy="3" r="3"/>
	</g>
	<g transform="translate(392,392) scale(4.8066666666667)">
		<circle cx="3" cy="3" r="3"/>
	</g>
	<g transform="translate(420,392) scale(4.8066666666667)">
		<circle cx="3" cy="3" r="3"/>
	</g>
	<g transform="translate(476,392) scale(4.8066666666667)">
		<circle cx="3" cy="3" r="3"/>
	</g>
	<g transform="translate(532,392) scale(4.8066666666667)">
		<circle cx="3" cy="3" r="3"/>
	</g>
	<g transform="translate(588,392) scale(4.8066666666667)">
		<circle cx="3" cy="3" r="3"/>
	</g>
	<g transform="translate(644,392) scale(4.8066666666667)">
		<circle cx="3" cy="3" r="3"/>
	</g>
	<g transform="translate(700,392) scale(4.8066666666667)">
		<circle cx="3" cy="3" r="3"/>
	</g>
	<g transform="translate(756,392) scale(4.8066666666667)">
		<circle cx="3" cy="3" r="3"/>
	</g>
	<g transform="translate(784,392) scale(4.8066666666667)">
		<circle cx="3" cy="3" r="3"/>
	</g>
	<g transform="translate(812,392) scale(4.8066666666667)">
		<circle cx="3" cy="3" r="3"/>
	</g>
	<g transform="translate(840,392) scale(4.8066666666667)">
		<circle cx="3" cy="3" r="3"/>
	</g>
	<g transform="translate(112,420) scale(4.8066666666667)">
		<circle cx="3" cy="3" r="3"/>
	</g>
	<g transform="translate(168,420) scale(4.8066666666667)">
		<circle cx="3" cy="3" r="3"/>
	</g>
	<g transform="translate(196,420) scale(4.8066666666667)">
		<circle cx="3" cy="3" r="3"/>
	</g>
	<g transform="translate(280,420) scale(4.8066666666667)">
		<circle cx="3" cy="3" r="3"/>
	</g>
	<g transform="translate(308,420) scale(4.8066666666667)">
		<circle cx="3" cy="3" r="3"/>
	</g>
	<g transform="translate(336,420) scale(4.8066666666667)">
		<circle cx="3" cy="3" r="3"/>
	</g>
	<g transform="translate(392,420) scale(4.8066666666667)">
		<circle cx="3" cy="3" r="3"/>
	</g>
	<g transform="translate(448,420) scale(4.8066666666667)">
		<circle cx="3" cy="3" r="3"/>
	</g>
	<g transform="translate(476,420) scale(4.8066666666667)">
		<circle cx="3" cy="3" r="3"/>
	</g>
	<g transform="translate(532,420) scale(4.8066666666667)">
		<circle cx="3" cy="3" r="3"/>
	</g>
	<g transform="translate(560,420) scale(4.8066666666667)">
		<circle cx="3" cy="3" r="3"/>
	</g>
	<g transform="translate(588,420) scale(4.8066666666667)">
		<circle cx="3" cy="3" r="3"/>
	</g>
	<g transform="translate(616,420) scale(4.8066666666667)">
		<circle cx="3" cy="3" r="3"/>
	</g>
	<g transform="translate(644,420) scale(4.8066666666667)">
		<circle cx="3" cy="3" r="3"/>
	</g>
	<g transform="translate(672,420) scale(4.8066666666667)">
		<circle cx="3" cy="3" r="3"/>
	</g>
	<g transform="translate(728,420) scale(4.8066666666667)">
		<circle cx="3" cy="3" r="3"/>
	</g>
	<g transform="translate(756,420) scale(4.8066666666667)">
		<circle cx="3" cy="3" r="3"/>
	</g>
	<g transform="translate(840,420) scale(4.8066666666667)">
		<circle cx="3" cy="3" r="3"/>
	</g>
	<g transform="translate(56,448) scale(4.8066666666667)">
		<circle cx="3" cy="3" r="3"/>
	</g>
	<g transform="translate(140,448) scale(4.8066666666667)">
		<circle cx="3" cy="3" r="3"/>
	</g>
	<g transform="translate(168,448) scale(4.8066666666667)">
		<circle cx="3" cy="3" r="3"/>
	</g>
	<g transform="translate(224,448) scale(4.8066666666667)">
		<circle cx="3" cy="3" r="3"/>
	</g>
	<g transform="translate(252,448) scale(4.8066666666667)">
		<circle cx="3" cy="3" r="3"/>
	</g>
	<g transform="translate(308,448) scale(4.8066666666667)">
		<circle cx="3" cy="3" r="3"/>
	</g>
	<g transform="translate(336,448) scale(4.8066666666667)">
		<circle cx="3" cy="3" r="3"/>
	</g>
	<g transform="translate(392,448) scale(4.8066666666667)">
		<circle cx="3" cy="3" r="3"/>
	</g>
	<g transform="translate(420,448) scale(4.8066666666667)">
		<circle cx="3" cy="3" r="3"/>
	</g>
	<g transform="translate(532,448) scale(4.8066666666667)">
		<circle cx="3" cy="3" r="3"/>
	</g>
	<g transform="translate(616,448) scale(4.8066666666667)">
		<circle cx="3" cy="3" r="3"/>
	</g>
	<g transform="translate(644,448) scale(4.8066666666667)">
		<circle cx="3" cy="3" r="3"/>
	</g>
	<g transform="translate(700,448) scale(4.8066666666667)">
		<circle cx="3" cy="3" r="3"/>
	</g>
	<g transform="translate(84,476) scale(4.8066666666667)">
		<circle cx="3" cy="3" r="3"/>
	</g>
	<g transform="translate(140,476) scale(4.8066666666667)">
		<circle cx="3" cy="3" r="3"/>
	</g>
	<g transform="translate(168,476) scale(4.8066666666667)">
		<circle cx="3" cy="3" r="3"/>
	</g>
	<g transform="translate(196,476) scale(4.8066666666667)">
		<circle cx="3" cy="3" r="3"/>
	</g>
	<g transform="translate(252,476) scale(4.8066666666667)">
		<circle cx="3" cy="3" r="3"/>
	</g>
	<g transform="translate(280,476) scale(4.8066666666667)">
		<circle cx="3" cy="3" r="3"/>
	</g>
	<g transform="translate(336,476) scale(4.8066666666667)">
		<circle cx="3" cy="3" r="3"/>
	</g>
	<g transform="translate(476,476) scale(4.8066666666667)">
		<circle cx="3" cy="3" r="3"/>
	</g>
	<g transform="translate(532,476) scale(4.8066666666667)">
		<circle cx="3" cy="3" r="3"/>
	</g>
	<g transform="translate(560,476) scale(4.8066666666667)">
		<circle cx="3" cy="3" r="3"/>
	</g>
	<g transform="translate(588,476) scale(4.8066666666667)">
		<circle cx="3" cy="3" r="3"/>
	</g>
	<g transform="translate(672,476) scale(4.8066666666667)">
		<circle cx="3" cy="3" r="3"/>
	</g>
	<g transform="translate(728,476) scale(4.8066666666667)">
		<circle cx="3" cy="3" r="3"/>
	</g>
	<g transform="translate(756,476) scale(4.8066666666667)">
		<circle cx="3" cy="3" r="3"/>
	</g>
	<g transform="translate(812,476) scale(4.8066666666667)">
		<circle cx="3" cy="3" r="3"/>
	</g>
	<g transform="translate(840,476) scale(4.8066666666667)">
		<circle cx="3" cy="3" r="3"/>
	</g>
	<g transform="translate(56,504) scale(4.8066666666667)">
		<circle cx="3" cy="3" r="3"/>
	</g>
	<g transform="translate(140,504) scale(4.8066666666667)">
		<circle cx="3" cy="3" r="3"/>
	</g>
	<g transform="translate(168,504) scale(4.8066666666667)">
		<circle cx="3" cy="3" r="3"/>
	</g>
	<g transform="translate(196,504) scale(4.8066666666667)">
		<circle cx="3" cy="3" r="3"/>
	</g>
	<g transform="translate(224,504) scale(4.8066666666667)">
		<circle cx="3" cy="3" r="3"/>
	</g>
	<g transform="translate(280,504) scale(4.8066666666667)">
		<circle cx="3" cy="3" r="3"/>
	</g>
	<g transform="translate(336,504) scale(4.8066666666667)">
		<circle cx="3" cy="3" r="3"/>
	</g>
	<g transform="translate(392,504) scale(4.8066666666667)">
		<circle cx="3" cy="3" r="3"/>
	</g>
	<g transform="translate(504,504) scale(4.8066666666667)">
		<circle cx="3" cy="3" r="3"/>
	</g>
	<g transform="translate(756,504) scale(4.8066666666667)">
		<circle cx="3" cy="3" r="3"/>
	</g>
	<g transform="translate(784,504) scale(4.8066666666667)">
		<circle cx="3" cy="3" r="3"/>
	</g>
	<g transform="translate(812,504) scale(4.8066666666667)">
		<circle cx="3" cy="3" r="3"/>
	</g>
	<g transform="translate(56,532) scale(4.8066666666667)">
		<circle cx="3" cy="3" r="3"/>
	</g>
	<g transform="translate(84,532) scale(4.8066666666667)">
		<circle cx="3" cy="3" r="3"/>
	</g>
	<g transform="translate(196,532) scale(4.8066666666667)">
		<circle cx="3" cy="3" r="3"/>
	</g>
	<g transform="translate(364,532) scale(4.8066666666667)">
		<circle cx="3" cy="3" r="3"/>
	</g>
	<g transform="translate(420,532) scale(4.8066666666667)">
		<circle cx="3" cy="3" r="3"/>
	</g>
	<g transform="translate(448,532) scale(4.8066666666667)">
		<circle cx="3" cy="3" r="3"/>
	</g>
	<g transform="translate(476,532) scale(4.8066666666667)">
		<circle cx="3" cy="3" r="3"/>
	</g>
	<g transform="translate(560,532) scale(4.8066666666667)">
		<circle cx="3" cy="3" r="3"/>
	</g>
	<g transform="translate(588,532) scale(4.8066666666667)">
		<circle cx="3" cy="3" r="3"/>
	</g>
	<g transform="translate(644,532) scale(4.8066666666667)">
		<circle cx="3" cy="3" r="3"/>
	</g>
	<g transform="translate(672,532) scale(4.8066666666667)">
		<circle cx="3" cy="3" r="3"/>
	</g>
	<g transform="translate(728,532) scale(4.8066666666667)">
		<circle cx="3" cy="3" r="3"/>
	</g>
	<g transform="translate(812,532) scale(4.8066666666667)">
		<circle cx="3" cy="3" r="3"/>
	</g>
	<g transform="translate(840,532) scale(4.8066666666667)">
		<circle cx="3" cy="3" r="3"/>
	</g>
	<g transform="translate(56,560) scale(4.8066666666667)">
		<circle cx="3" cy="3" r="3"/>
	</g>
	<g transform="translate(140,560) scale(4.8066666666667)">
		<circle cx="3" cy="3" r="3"/>
	</g>
	<g transform="translate(168,560) scale(4.8066666666667)">
		<circle cx="3" cy="3" r="3"/>
	</g>
	<g transform="translate(224,560) scale(4.8066666666667)">
		<circle cx="3" cy="3" r="3"/>
	</g>
	<g transform="translate(252,560) scale(4.8066666666667)">
		<circle cx="3" cy="3" r="3"/>
	</g>
	<g transform="translate(280,560) scale(4.8066666666667)">
		<circle cx="3" cy="3" r="3"/>
	</g>
	<g transform="translate(364,560) scale(4.8066666666667)">
		<circle cx="3" cy="3" r="3"/>
	</g>
	<g transform="translate(420,560) scale(4.8066666666667)">
		<circle cx="3" cy="3" r="3"/>
	</g>
	<g transform="translate(448,560) scale(4.8066666666667)">
		<circle cx="3" cy="3" r="3"/>
	</g>
	<g transform="translate(476,560) scale(4.8066666666667)">
		<circle cx="3" cy="3" r="3"/>
	</g>
	<g transform="translate(504,560) scale(4.8066666666667)">
		<circle cx="3" cy="3" r="3"/>
	</g>
	<g transform="translate(616,560) scale(4.8066666666667)">
		<circle cx="3" cy="3" r="3"/>
	</g>
	<g transform="translate(672,560) scale(4.8066666666667)">
		<circle cx="3" cy="3" r="3"/>
	</g>
	<g transform="translate(700,560) scale(4.8066666666667)">
		<circle cx="3" cy="3" r="3"/>
	</g>
	<g transform="translate(784,560) scale(4.8066666666667)">
		<circle cx="3" cy="3" r="3"/>
	</g>
	<g transform="translate(56,588) scale(4.8066666666667)">
		<circle cx="3" cy="3" r="3"/>
	</g>
	<g transform="translate(112,588) scale(4.8066666666667)">
		<circle cx="3" cy="3" r="3"/>
	</g>
	<g transform="translate(168,588) scale(4.8066666666667)">
		<circle cx="3" cy="3" r="3"/>
	</g>
	<g transform="translate(308,588) scale(4.8066666666667)">
		<circle cx="3" cy="3" r="3"/>
	</g>
	<g transform="translate(336,588) scale(4.8066666666667)">
		<circle cx="3" cy="3" r="3"/>
	</g>
	<g transform="translate(364,588) scale(4.8066666666667)">
		<circle cx="3" cy="3" r="3"/>
	</g>
	<g transform="translate(392,588) scale(4.8066666666667)">
		<circle cx="3" cy="3" r="3"/>
	</g>
	<g transform="translate(420,588) scale(4.8066666666667)">
		<circle cx="3" cy="3" r="3"/>
	</g>
	<g transform="translate(476,588) scale(4.8066666666667)">
		<circle cx="3" cy="3" r="3"/>
	</g>
	<g transform="translate(616,588) scale(4.8066666666667)">
		<circle cx="3" cy="3" r="3"/>
	</g>
	<g transform="translate(672,588) scale(4.8066666666667)">
		<circle cx="3" cy="3" r="3"/>
	</g>
	<g transform="translate(700,588) scale(4.8066666666667)">
		<circle cx="3" cy="3" r="3"/>
	</g>
	<g transform="translate(728,588) scale(4.8066666666667)">
		<circle cx="3" cy="3" r="3"/>
	</g>
	<g transform="translate(812,588) scale(4.8066666666667)">
		<circle cx="3" cy="3" r="3"/>
	</g>
	<g transform="translate(840,588) scale(4.8066666666667)">
		<circle cx="3" cy="3" r="3"/>
	</g>
	<g transform="translate(56,616) scale(4.8066666666667)">
		<circle cx="3" cy="3" r="3"/>
	</g>
	<g transform="translate(140,616) scale(4.8066666666667)">
		<circle cx="3" cy="3" r="3"/>
	</g>
	<g transform="translate(196,616) scale(4.8066666666667)">
		<circle cx="3" cy="3" r="3"/>
	</g>
	<g transform="translate(224,616) scale(4.8066666666667)">
		<circle cx="3" cy="3" r="3"/>
	</g>
	<g transform="translate(252,616) scale(4.8066666666667)">
		<circle cx="3" cy="3" r="3"/>
	</g>
	<g transform="translate(280,616) scale(4.8066666666667)">
		<circle cx="3" cy="3" r="3"/>
	</g>
	<g transform="translate(364,616) scale(4.8066666666667)">
		<circle cx="3" cy="3" r="3"/>
	</g>
	<g transform="translate(448,616) scale(4.8066666666667)">
		<circle cx="3" cy="3" r="3"/>
	</g>
	<g transform="translate(476,616) scale(4.8066666666667)">
		<circle cx="3" cy="3" r="3"/>
	</g>
	<g transform="translate(532,616) scale(4.8066666666667)">
		<circle cx="3" cy="3" r="3"/>
	</g>
	<g transform="translate(588,616) scale(4.8066666666667)">
		<circle cx="3" cy="3" r="3"/>
	</g>
	<g transform="translate(616,616) scale(4.8066666666667)">
		<circle cx="3" cy="3" r="3"/>
	</g>
	<g transform="translate(644,616) scale(4.8066666666667)">
		<circle cx="3" cy="3" r="3"/>
	</g>
	<g transform="translate(672,616) scale(4.8066666666667)">
		<circle cx="3" cy="3" r="3"/>
	</g>
	<g transform="translate(700,616) scale(4.8066666666667)">
		<circle cx="3" cy="3" r="3"/>
	</g>
	<g transform="translate(728,616) scale(4.8066666666667)">
		<circle cx="3" cy="3" r="3"/>
	</g>
	<g transform="translate(756,616) scale(4.8066666666667)">
		<circle cx="3" cy="3" r="3"/>
	</g>
	<g transform="translate(784,616) scale(4.8066666666667)">
		<circle cx="3" cy="3" r="3"/>
	</g>
	<g transform="translate(812,616) scale(4.8066666666667)">
		<circle cx="3" cy="3" r="3"/>
	</g>
	<g transform="translate(840,616) scale(4.8066666666667)">
		<circle cx="3" cy="3" r="3"/>
	</g>
	<g transform="translate(280,644) scale(4.8066666666667)">
		<circle cx="3" cy="3" r="3"/>
	</g>
	<g transform="translate(308,644) scale(4.8066666666667)">
		<circle cx="3" cy="3" r="3"/>
	</g>
	<g transform="translate(336,644) scale(4.8066666666667)">
		<circle cx="3" cy="3" r="3"/>
	</g>
	<g transform="translate(392,644) scale(4.8066666666667)">
		<circle cx="3" cy="3" r="3"/>
	</g>
	<g transform="translate(420,644) scale(4.8066666666667)">
		<circle cx="3" cy="3" r="3"/>
	</g>
	<g transform="translate(448,644) scale(4.8066666666667)">
		<circle cx="3" cy="3" r="3"/>
	</g>
	<g transform="translate(504,644) scale(4.8066666666667)">
		<circle cx="3" cy="3" r="3"/>
	</g>
	<g transform="translate(588,644) scale(4.8066666666667)">
		<circle cx="3" cy="3" r="3"/>
	</g>
	<g transform="translate(616,644) scale(4.8066666666667)">
		<circle cx="3" cy="3" r="3"/>
	</g>
	<g transform="translate(728,644) scale(4.8066666666667)">
		<circle cx="3" cy="3" r="3"/>
	</g>
	<g transform="translate(756,644) scale(4.8066666666667)">
		<circle cx="3" cy="3" r="3"/>
	</g>
	<g transform="translate(840,644) scale(4.8066666666667)">
		<circle cx="3" cy="3" r="3"/>
	</g>
	<g transform="translate(280,672) scale(4.8066666666667)">
		<circle cx="3" cy="3" r="3"/>
	</g>
	<g transform="translate(364,672) scale(4.8066666666667)">
		<circle cx="3" cy="3" r="3"/>
	</g>
	<g transform="translate(420,672) scale(4.8066666666667)">
		<circle cx="3" cy="3" r="3"/>
	</g>
	<g transform="translate(448,672) scale(4.8066666666667)">
		<circle cx="3" cy="3" r="3"/>
	</g>
	<g transform="translate(476,672) scale(4.8066666666667)">
		<circle cx="3" cy="3" r="3"/>
	</g>
	<g transform="translate(504,672) scale(4.8066666666667)">
		<circle cx="3" cy="3" r="3"/>
	</g>
	<g transform="translate(560,672) scale(4.8066666666667)">
		<circle cx="3" cy="3" r="3"/>
	</g>
	<g transform="translate(588,672) scale(4.8066666666667)">
		<circle cx="3" cy="3" r="3"/>
	</g>
	<g transform="translate(616,672) scale(4.8066666666667)">
		<circle cx="3" cy="3" r="3"/>
	</g>
	<g transform="translate(672,672) scale(4.8066666666667)">
		<circle cx="3" cy="3" r="3"/>
	</g>
	<g transform="translate(728,672) scale(4.8066666666667)">
		<circle cx="3" cy="3" r="3"/>
	</g>
	<g transform="translate(280,700) scale(4.8066666666667)">
		<circle cx="3" cy="3" r="3"/>
	</g>
	<g transform="translate(336,700) scale(4.8066666666667)">
		<circle cx="3" cy="3" r="3"/>
	</g>
	<g transform="translate(364,700) scale(4.8066666666667)">
		<circle cx="3" cy="3" r="3"/>
	</g>
	<g transform="translate(392,700) scale(4.8066666666667)">
		<circle cx="3" cy="3" r="3"/>
	</g>
	<g transform="translate(420,700) scale(4.8066666666667)">
		<circle cx="3" cy="3" r="3"/>
	</g>
	<g transform="translate(588,700) scale(4.8066666666667)">
		<circle cx="3" cy="3" r="3"/>
	</g>
	<g transform="translate(616,700) scale(4.8066666666667)">
		<circle cx="3" cy="3" r="3"/>
	</g>
	<g transform="translate(728,700) scale(4.8066666666667)">
		<circle cx="3" cy="3" r="3"/>
	</g>
	<g transform="translate(756,700) scale(4.8066666666667)">
		<circle cx="3" cy="3" r="3"/>
	</g>
	<g transform="translate(280,728) scale(4.8066666666667)">
		<circle cx="3" cy="3" r="3"/>
	</g>
	<g transform="translate(308,728) scale(4.8066666666667)">
		<circle cx="3" cy="3" r="3"/>
	</g>
	<g transform="translate(364,728) scale(4.8066666666667)">
		<circle cx="3" cy="3" r="3"/>
	</g>
	<g transform="translate(392,728) scale(4.8066666666667)">
		<circle cx="3" cy="3" r="3"/>
	</g>
	<g transform="translate(420,728) scale(4.8066666666667)">
		<circle cx="3" cy="3" r="3"/>
	</g>
	<g transform="translate(448,728) scale(4.8066666666667)">
		<circle cx="3" cy="3" r="3"/>
	</g>
	<g transform="translate(476,728) scale(4.8066666666667)">
		<circle cx="3" cy="3" r="3"/>
	</g>
	<g transform="translate(560,728) scale(4.8066666666667)">
		<circle cx="3" cy="3" r="3"/>
	</g>
	<g transform="translate(616,728) scale(4.8066666666667)">
		<circle cx="3" cy="3" r="3"/>
	</g>
	<g transform="translate(644,728) scale(4.8066666666667)">
		<circle cx="3" cy="3" r="3"/>
	</g>
	<g transform="translate(672,728) scale(4.8066666666667)">
		<circle cx="3" cy="3" r="3"/>
	</g>
	<g transform="translate(700,728) scale(4.8066666666667)">
		<circle cx="3" cy="3" r="3"/>
	</g>
	<g transform="translate(728,728) scale(4.8066666666667)">
		<circle cx="3" cy="3" r="3"/>
	</g>
	<g transform="translate(756,728) scale(4.8066666666667)">
		<circle cx="3" cy="3" r="3"/>
	</g>
	<g transform="translate(784,728) scale(4.8066666666667)">
		<circle cx="3" cy="3" r="3"/>
	</g>
	<g transform="translate(812,728) scale(4.8066666666667)">
		<circle cx="3" cy="3" r="3"/>
	</g>
	<g transform="translate(280,756) scale(4.8066666666667)">
		<circle cx="3" cy="3" r="3"/>
	</g>
	<g transform="translate(364,756) scale(4.8066666666667)">
		<circle cx="3" cy="3" r="3"/>
	</g>
	<g transform="translate(392,756) scale(4.8066666666667)">
		<circle cx="3" cy="3" r="3"/>
	</g>
	<g transform="translate(420,756) scale(4.8066666666667)">
		<circle cx="3" cy="3" r="3"/>
	</g>
	<g transform="translate(448,756) scale(4.8066666666667)">
		<circle cx="3" cy="3" r="3"/>
	</g>
	<g transform="translate(476,756) scale(4.8066666666667)">
		<circle cx="3" cy="3" r="3"/>
	</g>
	<g transform="translate(504,756) scale(4.8066666666667)">
		<circle cx="3" cy="3" r="3"/>
	</g>
	<g transform="translate(588,756) scale(4.8066666666667)">
		<circle cx="3" cy="3" r="3"/>
	</g>
	<g transform="translate(616,756) scale(4.8066666666667)">
		<circle cx="3" cy="3" r="3"/>
	</g>
	<g transform="translate(644,756) scale(4.8066666666667)">
		<circle cx="3" cy="3" r="3"/>
	</g>
	<g transform="translate(700,756) scale(4.8066666666667)">
		<circle cx="3" cy="3" r="3"/>
	</g>
	<g transform="translate(756,756) scale(4.8066666666667)">
		<circle cx="3" cy="3" r="3"/>
	</g>
	<g transform="translate(280,784) scale(4.8066666666667)">
		<circle cx="3" cy="3" r="3"/>
	</g>
	<g transform="translate(364,784) scale(4.8066666666667)">
		<circle cx="3" cy="3" r="3"/>
	</g>
	<g transform="translate(392,784) scale(4.8066666666667)">
		<circle cx="3" cy="3" r="3"/>
	</g>
	<g transform="translate(420,784) scale(4.8066666666667)">
		<circle cx="3" cy="3" r="3"/>
	</g>
	<g transform="translate(448,784) scale(4.8066666666667)">
		<circle cx="3" cy="3" r="3"/>
	</g>
	<g transform="translate(532,784) scale(4.8066666666667)">
		<circle cx="3" cy="3" r="3"/>
	</g>
	<g transform="translate(560,784) scale(4.8066666666667)">
		<circle cx="3" cy="3" r="3"/>
	</g>
	<g transform="translate(588,784) scale(4.8066666666667)">
		<circle cx="3" cy="3" r="3"/>
	</g>
	<g transform="translate(616,784) scale(4.8066666666667)">
		<circle cx="3" cy="3" r="3"/>
	</g>
	<g transform="translate(644,784) scale(4.8066666666667)">
		<circle cx="3" cy="3" r="3"/>
	</g>
	<g transform="translate(672,784) scale(4.8066666666667)">
		<circle cx="3" cy="3" r="3"/>
	</g>
	<g transform="translate(700,784) scale(4.8066666666667)">
		<circle cx="3" cy="3" r="3"/>
	</g>
	<g transform="translate(728,784) scale(4.8066666666667)">
		<circle cx="3" cy="3" r="3"/>
	</g>
	<g transform="translate(812,784) scale(4.8066666666667)">
		<circle cx="3" cy="3" r="3"/>
	</g>
	<g transform="translate(280,812) scale(4.8066666666667)">
		<circle cx="3" cy="3" r="3"/>
	</g>
	<g transform="translate(308,812) scale(4.8066666666667)">
		<circle cx="3" cy="3" r="3"/>
	</g>
	<g transform="translate(336,812) scale(4.8066666666667)">
		<circle cx="3" cy="3" r="3"/>
	</g>
	<g transform="translate(392,812) scale(4.8066666666667)">
		<circle cx="3" cy="3" r="3"/>
	</g>
	<g transform="translate(420,812) scale(4.8066666666667)">
		<circle cx="3" cy="3" r="3"/>
	</g>
	<g transform="translate(448,812) scale(4.8066666666667)">
		<circle cx="3" cy="3" r="3"/>
	</g>
	<g transform="translate(504,812) scale(4.8066666666667)">
		<circle cx="3" cy="3" r="3"/>
	</g>
	<g transform="translate(560,812) scale(4.8066666666667)">
		<circle cx="3" cy="3" r="3"/>
	</g>
	<g transform="translate(616,812) scale(4.8066666666667)">
		<circle cx="3" cy="3" r="3"/>
	</g>
	<g transform="translate(672,812) scale(4.8066666666667)">
		<circle cx="3" cy="3" r="3"/>
	</g>
	<g transform="translate(728,812) scale(4.8066666666667)">
		<circle cx="3" cy="3" r="3"/>
	</g>
	<g transform="translate(812,812) scale(4.8066666666667)">
		<circle cx="3" cy="3" r="3"/>
	</g>
	<g transform="translate(364,840) scale(4.8066666666667)">
		<circle cx="3" cy="3" r="3"/>
	</g>
	<g transform="translate(392,840) scale(4.8066666666667)">
		<circle cx="3" cy="3" r="3"/>
	</g>
	<g transform="translate(420,840) scale(4.8066666666667)">
		<circle cx="3" cy="3" r="3"/>
	</g>
	<g transform="translate(448,840) scale(4.8066666666667)">
		<circle cx="3" cy="3" r="3"/>
	</g>
	<g transform="translate(532,840) scale(4.8066666666667)">
		<circle cx="3" cy="3" r="3"/>
	</g>
	<g transform="translate(588,840) scale(4.8066666666667)">
		<circle cx="3" cy="3" r="3"/>
	</g>
	<g transform="translate(672,840) scale(4.8066666666667)">
		<circle cx="3" cy="3" r="3"/>
	</g>
	<g transform="translate(728,840) scale(4.8066666666667)">
		<circle cx="3" cy="3" r="3"/>
	</g>
	<g transform="translate(756,840) scale(4.8066666666667)">
		<circle cx="3" cy="3" r="3"/>
	</g>
	<g transform="translate(784,840) scale(4.8066666666667)">
		<circle cx="3" cy="3" r="3"/>
	</g>
	<g transform="translate(56,56)">
		<g transform="scale(14)">
			<path d="M14,14V4.4C14,2,12,0,9.6,0H4.4C2,0,0,2,0,4.4v5.1C0,12,2,14,4.4,14H14z M4.8,2h4.4C10.7,2,12,3.3,12,4.8V12H4.8
				C3.3,12,2,10.7,2,9.2V4.8C2,3.3,3.3,2,4.8,2z"/>
		</g>
	</g>
	<g transform="translate(672,56)">
		<g transform="scale(14) rotate(90 7 7)">
			<path d="M14,14V4.4C14,2,12,0,9.6,0H4.4C2,0,0,2,0,4.4v5.1C0,12,2,14,4.4,14H14z M4.8,2h4.4C10.7,2,12,3.3,12,4.8V12H4.8
				C3.3,12,2,10.7,2,9.2V4.8C2,3.3,3.3,2,4.8,2z"/>
		</g>
	</g>
	<g transform="translate(56,672)">
		<g transform="scale(14) rotate(-90 7 7)">
			<path d="M14,14V4.4C14,2,12,0,9.6,0H4.4C2,0,0,2,0,4.4v5.1C0,12,2,14,4.4,14H14z M4.8,2h4.4C10.7,2,12,3.3,12,4.8V12H4.8
				C3.3,12,2,10.7,2,9.2V4.8C2,3.3,3.3,2,4.8,2z"/>
		</g>
	</g>
	<g transform="translate(112,112)">
		<g transform="scale(14)">
			<circle cx="3" cy="3" r="3"/>
		</g>
	</g>
	<g transform="translate(728,112)">
		<g transform="scale(14)">
			<circle cx="3" cy="3" r="3"/>
		</g>
	</g>
	<g transform="translate(112,728)">
		<g transform="scale(14)">
			<circle cx="3" cy="3" r="3"/>
		</g>
	</g>
</g>
</svg>
